<?xml version="1.0" standalone="no"?>
<svg xmlns:xlink="http://www.w3.org/1999/xlink" id="wave" style="transform:rotate(0deg); transition: 0.3s" viewBox="0 0 1440 490" version="1.1" xmlns="http://www.w3.org/2000/svg"><defs><linearGradient id="sw-gradient-0" x1="0" x2="0" y1="1" y2="0"><stop stop-color="rgba(255, 215, 0, 1)" offset="0%"/><stop stop-color="rgba(255, 215, 0, 1)" offset="100%"/></linearGradient></defs><path style="transform:translate(0, 0px); opacity:1" fill="url(#sw-gradient-0)" d="M0,0L60,32.7C120,65,240,131,360,179.7C480,229,600,261,720,253.2C840,245,960,196,1080,179.7C1200,163,1320,180,1440,187.8C1560,196,1680,196,1800,179.7C1920,163,2040,131,2160,155.2C2280,180,2400,261,2520,277.7C2640,294,2760,245,2880,220.5C3000,196,3120,196,3240,212.3C3360,229,3480,261,3600,302.2C3720,343,3840,392,3960,392C4080,392,4200,343,4320,294C4440,245,4560,196,4680,163.3C4800,131,4920,114,5040,106.2C5160,98,5280,98,5400,89.8C5520,82,5640,65,5760,98C5880,131,6000,212,6120,236.8C6240,261,6360,229,6480,236.8C6600,245,6720,294,6840,269.5C6960,245,7080,147,7200,106.2C7320,65,7440,82,7560,114.3C7680,147,7800,196,7920,196C8040,196,8160,147,8280,147C8400,147,8520,196,8580,220.5L8640,245L8640,490L8580,490C8520,490,8400,490,8280,490C8160,490,8040,490,7920,490C7800,490,7680,490,7560,490C7440,490,7320,490,7200,490C7080,490,6960,490,6840,490C6720,490,6600,490,6480,490C6360,490,6240,490,6120,490C6000,490,5880,490,5760,490C5640,490,5520,490,5400,490C5280,490,5160,490,5040,490C4920,490,4800,490,4680,490C4560,490,4440,490,4320,490C4200,490,4080,490,3960,490C3840,490,3720,490,3600,490C3480,490,3360,490,3240,490C3120,490,3000,490,2880,490C2760,490,2640,490,2520,490C2400,490,2280,490,2160,490C2040,490,1920,490,1800,490C1680,490,1560,490,1440,490C1320,490,1200,490,1080,490C960,490,840,490,720,490C600,490,480,490,360,490C240,490,120,490,60,490L0,490Z"/></svg>